<svg xmlns="http://www.w3.org/2000/svg" preserveAspectRatio="xMidYMid meet" width="100%" height="100%">
  <!-- Fond avec un dégradé des couleurs demandées -->
  <defs>
    <linearGradient id="bg-gradient" x1="0%" y1="0%" x2="100%" y2="100%">
      <stop offset="0%" stop-color="#312e81" /> <!-- indigo-900 -->
      <stop offset="100%" stop-color="#581c87" /> <!-- purple-900 -->
    </linearGradient>
    
    <!-- Motif de grille -->
    <pattern id="grid" width="40" height="40" patternUnits="userSpaceOnUse">
      <path d="M 40 0 L 0 0 0 40" fill="none" stroke="#4338ca" stroke-width="0.5" opacity="0.3"/>
    </pattern>
    
    <!-- Étoile pour les particules -->
    <path id="star" d="M0,0 L1,2 L0,4 L-1,2 Z" />
  </defs>
  
  <!-- Rectangle de fond avec le dégradé -->
  <rect width="100%" height="100%" fill="url(#bg-gradient)" />
  
  <!-- Grille de fond -->
  <rect width="100%" height="100%" fill="url(#grid)" />
  
  <!-- Cercles futuristes -->
  <circle cx="50%" cy="50%" r="25%" fill="none" stroke="#818cf8" stroke-width="1" opacity="0.5" />
  <circle cx="50%" cy="50%" r="20%" fill="none" stroke="#818cf8" stroke-width="0.8" opacity="0.4" />
  <circle cx="50%" cy="50%" r="15%" fill="none" stroke="#818cf8" stroke-width="0.6" opacity="0.3" />
  
  <!-- Lignes horizontales -->
  <line x1="0" y1="33%" x2="100%" y2="33%" stroke="#a78bfa" stroke-width="0.5" opacity="0.2" />
  <line x1="0" y1="66%" x2="100%" y2="66%" stroke="#a78bfa" stroke-width="0.5" opacity="0.2" />
  
  <!-- Hexagones futuristes -->
  <polygon points="75%,33% 81%,37% 81%,45% 75%,50% 69%,45% 69%,37%" fill="none" stroke="#c4b5fd" stroke-width="1" opacity="0.6" />
  <polygon points="25%,66% 31%,70% 31%,78% 25%,83% 19%,78% 19%,70%" fill="none" stroke="#c4b5fd" stroke-width="1" opacity="0.6" />
  
  <!-- Éléments géométriques abstraits -->
  <path d="M12%,16% L18%,8% L25%,16% L18%,25% Z" fill="none" stroke="#6366f1" stroke-width="1" opacity="0.7" />
  <path d="M81%,75% L87%,66% L93%,75% L87%,83% Z" fill="none" stroke="#6366f1" stroke-width="1" opacity="0.7" />
  
  <!-- Points lumineux -->
  <circle cx="12%" cy="33%" r="0.3%" fill="#d8b4fe" opacity="0.8" />
  <circle cx="37%" cy="25%" r="0.25%" fill="#d8b4fe" opacity="0.7" />
  <circle cx="62%" cy="16%" r="0.3%" fill="#d8b4fe" opacity="0.8" />
  <circle cx="87%" cy="50%" r="0.25%" fill="#d8b4fe" opacity="0.7" />
  <circle cx="25%" cy="83%" r="0.3%" fill="#d8b4fe" opacity="0.8" />
  <circle cx="50%" cy="75%" r="0.25%" fill="#d8b4fe" opacity="0.7" />
  <circle cx="75%" cy="91%" r="0.3%" fill="#d8b4fe" opacity="0.8" />
  
  <!-- Lignes diagonales -->
  <line x1="0" y1="0" x2="25%" y2="33%" stroke="#a78bfa" stroke-width="0.5" opacity="0.2" />
  <line x1="75%" y1="0" x2="100%" y2="33%" stroke="#a78bfa" stroke-width="0.5" opacity="0.2" />
  <line x1="0" y1="100%" x2="25%" y2="66%" stroke="#a78bfa" stroke-width="0.5" opacity="0.2" />
  <line x1="75%" y1="100%" x2="100%" y2="66%" stroke="#a78bfa" stroke-width="0.5" opacity="0.2" />
</svg>